<mxfile host="app.diagrams.net" modified="2023-01-18T10:47:32.386Z" agent="5.0 (Windows NT 10.0; Win64; x64) AppleWebKit/537.36 (KHTML, like Gecko) Chrome/109.0.0.0 Safari/537.36 Edg/109.0.1518.55" etag="3vVku9sNbFiu7VsDQAdX" version="20.8.5" type="github">
  <diagram name="Page-1" id="c7488fd3-1785-93aa-aadb-54a6760d102a">
    <mxGraphModel dx="467" dy="269" grid="1" gridSize="10" guides="1" tooltips="1" connect="1" arrows="1" fold="1" page="1" pageScale="1" pageWidth="1100" pageHeight="850" background="none" math="0" shadow="0">
      <root>
        <mxCell id="0" />
        <mxCell id="1" parent="0" />
        <mxCell id="D_ySamenjN0o2ctrZhSt-29" value="" style="shape=umlLifeline;participant=umlActor;perimeter=lifelinePerimeter;whiteSpace=wrap;html=1;container=1;collapsible=0;recursiveResize=0;verticalAlign=top;spacingTop=36;outlineConnect=0;fillColor=none;" parent="1" vertex="1">
          <mxGeometry x="90" y="40" width="20" height="300" as="geometry" />
        </mxCell>
        <mxCell id="WngzqLlNWW4Z8B7oAlS5-2" value="" style="html=1;points=[];perimeter=orthogonalPerimeter;" parent="D_ySamenjN0o2ctrZhSt-29" vertex="1">
          <mxGeometry x="5" y="70" width="10" height="210" as="geometry" />
        </mxCell>
        <mxCell id="D_ySamenjN0o2ctrZhSt-30" value="Help Desk System" style="shape=umlLifeline;perimeter=lifelinePerimeter;whiteSpace=wrap;html=1;container=1;collapsible=0;recursiveResize=0;outlineConnect=0;fillColor=none;" parent="1" vertex="1">
          <mxGeometry x="210" y="40" width="100" height="300" as="geometry" />
        </mxCell>
        <mxCell id="UEY1z4FeeZJQMqZzBVZx-1" value="" style="html=1;points=[];perimeter=orthogonalPerimeter;" parent="D_ySamenjN0o2ctrZhSt-30" vertex="1">
          <mxGeometry x="45" y="100" width="10" height="190" as="geometry" />
        </mxCell>
        <mxCell id="yABycnlgP7srYdiVndCJ-1" value="Ticket Categorization" style="html=1;verticalAlign=bottom;endArrow=open;dashed=1;endSize=8;rounded=0;exitX=1.067;exitY=0.133;exitDx=0;exitDy=0;exitPerimeter=0;edgeStyle=entityRelationEdgeStyle;elbow=vertical;" edge="1" parent="D_ySamenjN0o2ctrZhSt-30" source="UEY1z4FeeZJQMqZzBVZx-1" target="D_ySamenjN0o2ctrZhSt-30">
          <mxGeometry relative="1" as="geometry">
            <mxPoint x="59.5" y="150.14999999999986" as="sourcePoint" />
            <mxPoint x="130" y="130" as="targetPoint" />
          </mxGeometry>
        </mxCell>
        <mxCell id="D_ySamenjN0o2ctrZhSt-31" value="End User" style="text;html=1;strokeColor=none;fillColor=none;align=center;verticalAlign=middle;whiteSpace=wrap;rounded=0;" parent="1" vertex="1">
          <mxGeometry x="70" y="80" width="60" height="30" as="geometry" />
        </mxCell>
        <mxCell id="D_ySamenjN0o2ctrZhSt-44" value="Mail/SMS" style="html=1;verticalAlign=bottom;labelBackgroundColor=none;endArrow=block;endFill=1;endSize=6;align=left;rounded=0;labelBorderColor=none;exitX=1.086;exitY=0.08;exitDx=0;exitDy=0;exitPerimeter=0;" parent="1" source="WngzqLlNWW4Z8B7oAlS5-2" target="D_ySamenjN0o2ctrZhSt-30" edge="1">
          <mxGeometry x="-1" relative="1" as="geometry">
            <mxPoint x="320" y="250" as="sourcePoint" />
            <mxPoint x="430" y="250" as="targetPoint" />
          </mxGeometry>
        </mxCell>
        <mxCell id="WngzqLlNWW4Z8B7oAlS5-3" value="&lt;div style=&quot;text-align: justify;&quot;&gt;&lt;span style=&quot;background-color: initial;&quot;&gt;Support Staff&lt;/span&gt;&lt;/div&gt;" style="shape=umlLifeline;participant=umlActor;perimeter=lifelinePerimeter;whiteSpace=wrap;html=1;container=1;collapsible=0;recursiveResize=0;verticalAlign=top;spacingTop=36;outlineConnect=0;size=40;align=center;" parent="1" vertex="1">
          <mxGeometry x="390" y="40" width="20" height="300" as="geometry" />
        </mxCell>
        <mxCell id="UEY1z4FeeZJQMqZzBVZx-3" value="" style="html=1;points=[];perimeter=orthogonalPerimeter;" parent="WngzqLlNWW4Z8B7oAlS5-3" vertex="1">
          <mxGeometry x="5" y="110" width="10" height="180" as="geometry" />
        </mxCell>
        <mxCell id="WngzqLlNWW4Z8B7oAlS5-4" value="Ticket Creation" style="html=1;verticalAlign=bottom;endArrow=open;dashed=1;endSize=8;rounded=0;entryX=0.985;entryY=0.415;entryDx=0;entryDy=0;entryPerimeter=0;exitX=0.128;exitY=0.044;exitDx=0;exitDy=0;exitPerimeter=0;" parent="1" edge="1" source="UEY1z4FeeZJQMqZzBVZx-1">
          <mxGeometry relative="1" as="geometry">
            <mxPoint x="250" y="150" as="sourcePoint" />
            <mxPoint x="104.85000000000002" y="148.14999999999986" as="targetPoint" />
          </mxGeometry>
        </mxCell>
        <mxCell id="UEY1z4FeeZJQMqZzBVZx-2" value="Ticket Assign" style="html=1;verticalAlign=bottom;labelBackgroundColor=none;endArrow=block;endFill=1;endSize=6;align=left;rounded=0;labelBorderColor=none;exitX=0.954;exitY=0.154;exitDx=0;exitDy=0;exitPerimeter=0;entryX=0.045;entryY=0.445;entryDx=0;entryDy=0;entryPerimeter=0;" parent="1" target="UEY1z4FeeZJQMqZzBVZx-3" edge="1">
          <mxGeometry x="-1" relative="1" as="geometry">
            <mxPoint x="264.53999999999996" y="228.26" as="sourcePoint" />
            <mxPoint x="390" y="230" as="targetPoint" />
          </mxGeometry>
        </mxCell>
        <mxCell id="yABycnlgP7srYdiVndCJ-2" value="Ticket Assign Details" style="html=1;verticalAlign=bottom;endArrow=open;dashed=1;endSize=8;rounded=0;exitX=0.13;exitY=0.523;exitDx=0;exitDy=0;exitPerimeter=0;" edge="1" parent="1" source="UEY1z4FeeZJQMqZzBVZx-1" target="WngzqLlNWW4Z8B7oAlS5-2">
          <mxGeometry relative="1" as="geometry">
            <mxPoint x="257.5" y="186.14999999999986" as="sourcePoint" />
            <mxPoint x="110" y="239" as="targetPoint" />
          </mxGeometry>
        </mxCell>
      </root>
    </mxGraphModel>
  </diagram>
</mxfile>
